<svg xmlns="http://www.w3.org/2000/svg" viewBox="0 0 512 512">
  <defs>
    <linearGradient id="gold" x1="0" y1="0" x2="1" y2="1">
      <stop offset="0" stop-color="#FFD778"/>
      <stop offset="0.55" stop-color="#D4AF37"/>
      <stop offset="1" stop-color="#B8891B"/>
    </linearGradient>
  </defs>

  <circle cx="256" cy="256" r="230" fill="none" stroke="url(#gold)" stroke-width="18"/>
  <path d="M170 220c8-52 44-88 86-88s78 36 86 88c18 8 30 26 30 46v22c0 22-18 40-40 40h-22c-16 22-38 34-54 40v26h46c14 0 26 12 26 26v10H184v-10c0-14 12-26 26-26h46v-26c-16-6-38-18-54-40h-22c-22 0-40-18-40-40v-22c0-20 12-38 30-46z" fill="#FFFFFF" opacity="0.92"/>
  <path d="M150 212c24-44 64-70 106-70s82 26 106 70c-12 4-20 16-20 30v18H170v-18c0-14-8-26-20-30z" fill="url(#gold)"/>
  <text x="256" y="430" text-anchor="middle" font-family="Arial, Helvetica, sans-serif" font-size="64" fill="url(#gold)" font-weight="700">MC</text>
</svg>
